<svg xmlns="http://www.w3.org/2000/svg" viewBox="0 0 800 200" width="800" height="200">
  <defs>
    <linearGradient id="bg" x1="0%" y1="0%" x2="100%" y2="100%">
      <stop offset="0%" stop-color="#6366f1" stop-opacity="0.15"/>
      <stop offset="100%" stop-color="#8b5cf6" stop-opacity="0.08"/>
    </linearGradient>
    <linearGradient id="accent" x1="0%" y1="0%" x2="100%" y2="0%">
      <stop offset="0%" stop-color="#6366f1"/>
      <stop offset="100%" stop-color="#8b5cf6"/>
    </linearGradient>
    <linearGradient id="icon" x1="0%" y1="0%" x2="100%" y2="100%">
      <stop offset="0%" stop-color="#6366f1"/>
      <stop offset="100%" stop-color="#8b5cf6"/>
    </linearGradient>
  </defs>
  <!-- Background -->
  <rect width="800" height="200" rx="12" fill="url(#bg)"/>
  <rect x="1" y="1" width="798" height="198" rx="11" fill="none" stroke="url(#accent)" stroke-opacity="0.3"/>
  <!-- Decorative dots -->
  <g fill="#6366f1" opacity="0.1">
    <circle cx="50" cy="30" r="3"/><circle cx="70" cy="30" r="3"/><circle cx="90" cy="30" r="3"/>
    <circle cx="50" cy="50" r="3"/><circle cx="70" cy="50" r="3"/><circle cx="90" cy="50" r="3"/>
    <circle cx="710" cy="150" r="3"/><circle cx="730" cy="150" r="3"/><circle cx="750" cy="150" r="3"/>
    <circle cx="710" cy="170" r="3"/><circle cx="730" cy="170" r="3"/><circle cx="750" cy="170" r="3"/>
  </g>
  <!-- Logo icon -->
  <g transform="translate(180, 55)">
    <circle cx="22" cy="22" r="22" fill="url(#icon)"/>
    <g fill="none" stroke="#fff" stroke-width="1.8" stroke-linecap="round">
      <circle cx="22" cy="22" r="9" stroke-dasharray="3 2.5"/>
      <circle cx="22" cy="22" r="3" fill="#fff" stroke="none"/>
      <path d="M22 10v-3M22 37v-3M10 22h-3M37 22h-3"/>
      <path d="M30.5 13.5l2-2M11.5 32.5l2-2M30.5 30.5l2 2M11.5 11.5l2 2"/>
    </g>
    <path d="M17 20l3 3 6-6" fill="none" stroke="#fff" stroke-width="2" stroke-linecap="round" stroke-linejoin="round"/>
  </g>
  <!-- Title -->
  <text x="240" y="88" font-family="system-ui, -apple-system, 'Segoe UI', sans-serif" font-size="36" font-weight="700" fill="url(#accent)">Code Workspace Engine</text>
  <!-- Subtitle -->
  <text x="240" y="120" font-family="system-ui, -apple-system, 'Segoe UI', sans-serif" font-size="16" fill="#6366f1" opacity="0.7">Natural language orchestration for spec-driven development</text>
  <!-- Decorative line -->
  <line x1="240" y1="135" x2="580" y2="135" stroke="url(#accent)" stroke-opacity="0.2" stroke-width="1"/>
  <!-- Feature tags -->
  <g font-family="system-ui, -apple-system, 'Segoe UI', sans-serif" font-size="11" fill="#6366f1" opacity="0.6">
    <text x="240" y="158">10 Agents</text>
    <text x="314" y="158">Auto-Delegation</text>
    <text x="420" y="158">Memory System</text>
    <text x="524" y="158">Quality Gates</text>
  </g>
  <g fill="#8b5cf6" opacity="0.3">
    <circle cx="305" cy="154" r="1.5"/><circle cx="411" cy="154" r="1.5"/><circle cx="515" cy="154" r="1.5"/>
  </g>
</svg>
